<?xml version="1.0" encoding="utf-8"?>
<svg version="1.1" viewBox="0.00 0.00 94.00 94.00" xmlns="http://www.w3.org/2000/svg">
  <g stroke-width="5.00" fill="none" stroke-linecap="butt">
    <path stroke="#b296be" vector-effect="non-scaling-stroke" d=" M 91.88 47.00 A 44.89 44.89 0.0 0 0 46.99 2.11 A 44.89 44.89 0.0 0 0 2.10 47.00 A 44.89 44.89 0.0 0 0 46.99 91.89 A 44.89 44.89 0.0 0 0 91.88 47.00"/>
    <path stroke="#b296be" vector-effect="non-scaling-stroke" d=" M 89.29 47.04 A 42.28 42.28 0.0 0 0 47.01 4.76 A 42.28 42.28 0.0 0 0 4.73 47.04 A 42.28 42.28 0.0 0 0 47.01 89.32 A 42.28 42.28 0.0 0 0 89.29 47.04"/>
    <path stroke="#ae93c1" vector-effect="non-scaling-stroke" d=" M 87.72 47.03 A 40.69 40.69 0.0 0 0 47.03 6.34 A 40.69 40.69 0.0 0 0 6.34 47.03 A 40.69 40.69 0.0 0 0 47.03 87.72 A 40.69 40.69 0.0 0 0 87.72 47.03"/>
    <path stroke="#ae93c1" vector-effect="non-scaling-stroke" d=" M 68.9659 46.0880 A 21.98 21.45 -1.1 0 0 46.5782 25.0640 A 21.98 21.45 -1.1 0 0 25.0141 46.9320 A 21.98 21.45 -1.1 0 0 47.4018 67.9560 A 21.98 21.45 -1.1 0 0 68.9659 46.0880"/>
    <path stroke="#b296be" vector-effect="non-scaling-stroke" d=" M 60.30 46.04 A 0.61 0.61 0.0 0 0 59.68 45.44 L 48.62 45.51 A 0.61 0.61 0.0 0 1 48.00 44.89 L 48.03 34.29 A 0.61 0.61 0.0 0 0 47.41 33.68 L 45.74 33.70 A 0.61 0.61 0.0 0 0 45.14 34.31 L 45.19 47.69 A 0.61 0.61 0.0 0 0 45.80 48.30 L 59.73 48.24 A 0.61 0.61 0.0 0 0 60.34 47.62 L 60.30 46.04"/>
    <path stroke="#b296be" vector-effect="non-scaling-stroke" d=" M 59.54 54.04 A 0.56 0.56 0.0 0 0 58.98 53.49 L 40.55 53.50 A 0.56 0.56 0.0 0 1 39.99 52.94 L 40.01 34.67 A 0.56 0.56 0.0 0 0 39.42 34.11 L 37.68 34.19 A 0.56 0.56 0.0 0 0 37.14 34.75 L 37.24 55.45 A 0.56 0.56 0.0 0 0 37.80 56.01 L 59.02 56.01 A 0.56 0.56 0.0 0 0 59.58 55.44 L 59.54 54.04"/>
  </g>
  <path fill="#642c7d" d=" M 91.88 47.00 A 44.89 44.89 0.0 0 1 46.99 91.89 A 44.89 44.89 0.0 0 1 2.10 47.00 A 44.89 44.89 0.0 0 1 46.99 2.11 A 44.89 44.89 0.0 0 1 91.88 47.00 Z M 89.29 47.04 A 42.28 42.28 0.0 0 0 47.01 4.76 A 42.28 42.28 0.0 0 0 4.73 47.04 A 42.28 42.28 0.0 0 0 47.01 89.32 A 42.28 42.28 0.0 0 0 89.29 47.04 Z"/>
  <path fill="#5d2683" d=" M 87.72 47.03 A 40.69 40.69 0.0 0 1 47.03 87.72 A 40.69 40.69 0.0 0 1 6.34 47.03 A 40.69 40.69 0.0 0 1 47.03 6.34 A 40.69 40.69 0.0 0 1 87.72 47.03 Z M 68.9659 46.0880 A 21.98 21.45 -1.1 0 0 46.5782 25.0640 A 21.98 21.45 -1.1 0 0 25.0141 46.9320 A 21.98 21.45 -1.1 0 0 47.4018 67.9560 A 21.98 21.45 -1.1 0 0 68.9659 46.0880 Z"/>
  <path fill="#642c7d" d=" M 60.30 46.04 L 60.34 47.62 A 0.61 0.61 0.0 0 1 59.73 48.24 L 45.80 48.30 A 0.61 0.61 0.0 0 1 45.19 47.69 L 45.14 34.31 A 0.61 0.61 0.0 0 1 45.74 33.70 L 47.41 33.68 A 0.61 0.61 0.0 0 1 48.03 34.29 L 48.00 44.89 A 0.61 0.61 0.0 0 0 48.62 45.51 L 59.68 45.44 A 0.61 0.61 0.0 0 1 60.30 46.04 Z"/>
  <path fill="#642c7d" d=" M 59.54 54.04 L 59.58 55.44 A 0.56 0.56 0.0 0 1 59.02 56.01 L 37.80 56.01 A 0.56 0.56 0.0 0 1 37.24 55.45 L 37.14 34.75 A 0.56 0.56 0.0 0 1 37.68 34.19 L 39.42 34.11 A 0.56 0.56 0.0 0 1 40.01 34.67 L 39.99 52.94 A 0.56 0.56 0.0 0 0 40.55 53.50 L 58.98 53.49 A 0.56 0.56 0.0 0 1 59.54 54.04 Z"/>
</svg>