<?xml version="1.0" encoding="UTF-8" standalone="no"?>
<!DOCTYPE svg PUBLIC "-//W3C//DTD SVG 1.1//EN" "http://www.w3.org/Graphics/SVG/1.1/DTD/svg11.dtd">
<svg xmlns="http://www.w3.org/2000/svg" version="1.1" viewBox="0.00 0.00 233.00 216.00">
<g stroke-width="5.00" fill="none" stroke-linecap="butt">
<path stroke="#ae93c1" vector-effect="non-scaling-stroke" d="
  M 161.87 50.99
  A 44.88 44.88 0.0 0 0 116.99 6.11
  A 44.88 44.88 0.0 0 0 72.11 50.99
  A 44.88 44.88 0.0 0 0 116.99 95.87
  A 44.88 44.88 0.0 0 0 161.87 50.99"
/>
<path stroke="#ae93c1" vector-effect="non-scaling-stroke" d="
  M 8.14 152.24
  Q 7.44 152.48 6.77 152.78
  Q 5.80 153.21 6.86 153.22
  Q 11.97 153.26 16.61 153.26
  Q 16.64 153.26 16.64 153.23
  L 16.64 152.93
  Q 16.64 152.75 16.46 152.75
  C 13.20 152.58 13.54 150.51 13.55 147.76
  Q 13.57 129.90 13.49 113.64
  A 0.65 0.65 0.0 0 0 12.57 113.05
  L 5.40 116.41
  Q 5.21 116.49 5.28 116.69
  L 5.36 116.94
  Q 5.47 117.28 5.79 117.13
  C 8.19 116.04 9.52 116.84 9.51 119.26
  Q 9.48 136.18 9.41 150.48
  Q 9.41 151.81 8.14 152.24"
/>
<path stroke="#ae93c1" vector-effect="non-scaling-stroke" d="
  M 99.77 117.42
  Q 100.31 120.00 100.24 122.61
  Q 99.91 135.19 99.97 150.16
  C 99.97 151.34 99.30 152.10 98.19 152.46
  Q 95.84 153.21 98.31 153.26
  Q 102.14 153.34 106.64 153.22
  Q 107.56 153.19 106.73 152.79
  Q 106.24 152.56 105.71 152.42
  Q 105.16 152.29 104.85 151.82
  Q 104.05 150.63 104.05 149.17
  Q 103.99 132.63 104.00 113.50
  A 0.49 0.49 0.0 0 0 103.30 113.05
  L 95.83 116.52
  Q 95.78 116.55 95.78 116.57
  L 95.87 116.82
  Q 95.97 117.10 96.27 117.05
  L 98.57 116.62
  A 1.03 1.03 0.0 0 1 99.77 117.42"
/>
<path stroke="#ae93c1" vector-effect="non-scaling-stroke" d="
  M 119.47 122.52
  A 2.72 2.72 0.0 0 0 116.75 119.80
  A 2.72 2.72 0.0 0 0 114.03 122.52
  A 2.72 2.72 0.0 0 0 116.75 125.24
  A 2.72 2.72 0.0 0 0 119.47 122.52"
/>
<path stroke="#ae93c1" vector-effect="non-scaling-stroke" d="
  M 133.58 133.83
  L 139.94 134.50
  Q 140.97 134.60 141.01 133.56
  L 141.04 132.69
  A 0.78 0.78 0.0 0 0 140.19 131.89
  L 133.74 132.47
  A 0.61 0.61 0.0 0 1 133.07 131.87
  L 133.02 128.41
  Q 133.01 128.17 132.80 128.07
  Q 132.68 128.01 132.53 128.03
  Q 132.12 128.08 131.99 128.47
  Q 130.68 132.30 126.80 132.30
  Q 126.28 132.30 126.27 132.82
  L 126.27 133.20
  Q 126.27 133.54 126.60 133.53
  Q 129.01 133.44 129.06 135.72
  Q 129.22 143.32 129.23 150.56
  A 1.61 1.57 -62.7 0 0 129.50 151.45
  C 132.21 155.51 138.44 154.23 141.33 151.23
  Q 142.95 149.56 140.93 150.71
  C 137.82 152.49 133.06 152.24 133.05 147.62
  Q 133.03 140.60 133.04 134.31
  A 0.49 0.48 2.7 0 1 133.58 133.83"
/>
<path stroke="#ae93c1" vector-effect="non-scaling-stroke" d="
  M 59.76 151.05
  Q 59.77 155.40 59.69 160.37
  C 59.62 164.59 57.64 168.88 52.58 167.55
  C 49.35 166.70 49.11 161.89 45.54 162.84
  A 1.36 1.36 0.0 0 0 44.60 163.73
  Q 43.80 166.06 45.89 167.40
  C 49.78 169.89 56.46 169.60 60.01 166.24
  Q 63.47 162.96 63.49 157.71
  Q 63.56 145.17 63.53 131.89
  Q 63.53 130.97 62.83 131.57
  L 62.06 132.24
  Q 61.47 132.76 60.78 132.40
  C 54.89 129.31 47.47 132.24 44.57 138.19
  C 42.53 142.36 42.35 148.84 46.28 152.14
  C 50.26 155.47 55.23 153.92 58.71 150.61
  Q 59.75 149.62 59.76 151.05"
/>
<path stroke="#ae93c1" vector-effect="non-scaling-stroke" d="
  M 85.95 150.72
  Q 85.99 152.31 86.80 153.59
  Q 87.17 154.18 87.79 153.87
  L 94.00 150.78
  Q 95.07 150.25 93.88 150.19
  Q 93.02 150.14 92.21 150.56
  A 1.61 1.61 0.0 0 1 89.91 149.45
  Q 89.45 147.26 89.47 144.86
  Q 89.53 138.17 89.52 131.88
  Q 89.52 130.93 88.83 131.58
  L 88.02 132.35
  A 0.92 0.91 37.3 0 1 86.95 132.49
  Q 82.66 130.15 77.94 131.86
  C 71.02 134.36 67.68 141.40 69.84 148.34
  Q 70.86 151.60 73.83 153.07
  C 77.94 155.09 81.92 153.34 85.10 150.36
  Q 85.92 149.59 85.95 150.72"
/>
<path stroke="#ae93c1" vector-effect="non-scaling-stroke" d="
  M 165.5051 135.1207
  A 11.66 11.51 -39.9 0 0 149.1769 133.7699
  A 11.66 11.51 -39.9 0 0 147.6149 150.0793
  A 11.66 11.51 -39.9 0 0 163.9431 151.4301
  A 11.66 11.51 -39.9 0 0 165.5051 135.1207"
/>
<path stroke="#ae93c1" vector-effect="non-scaling-stroke" d="
  M 229.04 142.59
  A 11.59 11.59 0.0 0 0 217.45 131.00
  A 11.59 11.59 0.0 0 0 205.86 142.59
  A 11.59 11.59 0.0 0 0 217.45 154.18
  A 11.59 11.59 0.0 0 0 229.04 142.59"
/>
<path stroke="#ae93c1" vector-effect="non-scaling-stroke" d="
  M 111.23 135.52
  Q 112.96 134.71 114.16 135.25
  A 1.74 1.73 12.1 0 1 115.17 136.81
  L 115.22 150.51
  A 1.70 1.69 77.9 0 1 114.21 152.08
  L 112.50 152.84
  Q 111.81 153.15 112.56 153.18
  Q 116.96 153.36 121.62 153.18
  Q 122.99 153.13 121.70 152.67
  Q 121.23 152.50 120.74 152.39
  A 2.25 2.24 6.8 0 1 119.00 150.19
  L 119.12 131.91
  A 0.54 0.53 -12.0 0 0 118.36 131.42
  L 110.96 134.79
  Q 110.76 134.88 110.83 135.08
  L 110.95 135.40
  Q 111.02 135.62 111.23 135.52"
/>
<path stroke="#ae93c1" vector-effect="non-scaling-stroke" d="
  M 189.17 135.00
  C 190.32 133.13 194.70 131.39 196.45 133.82
  Q 197.18 134.82 197.71 135.93
  A 2.17 2.16 75.8 0 0 199.73 137.14
  Q 202.27 137.04 202.28 134.67
  A 1.93 1.93 0.0 0 0 201.40 133.05
  C 195.78 129.46 188.32 131.87 184.60 137.24
  Q 182.45 140.33 183.21 144.77
  C 184.80 153.96 195.22 157.10 201.94 151.06
  Q 203.07 150.04 201.64 150.55
  Q 190.06 154.67 187.84 144.25
  Q 186.73 139.00 189.17 135.00"
/>
<path stroke="#ae93c1" vector-effect="non-scaling-stroke" d="
  M 25.96 138.22
  L 37.19 138.24
  Q 40.34 138.25 39.23 135.30
  L 38.95 134.56
  A 4.58 4.56 83.3 0 0 35.26 131.63
  Q 26.78 130.52 22.70 136.51
  C 14.97 147.87 29.07 160.25 39.36 150.81
  Q 40.30 149.95 39.07 150.31
  C 37.83 150.67 36.77 151.41 35.48 151.60
  C 27.37 152.74 23.94 145.83 25.19 138.87
  Q 25.30 138.22 25.96 138.22"
/>
<path stroke="#ae93c1" vector-effect="non-scaling-stroke" d="
  M 178.39 151.27
  A 2.79 2.79 0.0 0 0 175.60 148.48
  A 2.79 2.79 0.0 0 0 172.81 151.27
  A 2.79 2.79 0.0 0 0 175.60 154.06
  A 2.79 2.79 0.0 0 0 178.39 151.27"
/>
<path stroke="#ae93c1" vector-effect="non-scaling-stroke" d="
  M 79.48 203.55
  L 79.99 204.46
  A 1.08 1.07 -13.8 0 0 80.92 205.02
  Q 82.66 205.05 83.67 203.87
  Q 84.66 202.71 83.17 203.02
  Q 81.78 203.31 81.78 201.92
  Q 81.81 194.41 81.89 186.12
  A 1.16 1.15 87.8 0 0 80.63 184.95
  Q 79.15 185.09 77.84 186.11
  Q 77.39 186.46 77.86 186.78
  Q 79.80 188.14 79.12 191.45
  Q 79.01 192.01 78.44 191.95
  C 65.25 190.66 70.22 210.82 78.61 203.40
  Q 79.14 202.93 79.48 203.55"
/>
<path stroke="#ae93c1" vector-effect="non-scaling-stroke" d="
  M 122.70 188.27
  L 122.70 202.59
  A 1.72 1.71 -77.0 0 0 123.66 204.13
  Q 126.50 205.55 129.47 204.68
  C 136.21 202.67 135.71 190.14 126.61 192.17
  Q 126.15 192.27 126.17 192.74
  L 126.18 193.17
  A 0.34 0.34 0.0 0 0 126.61 193.48
  C 130.61 192.30 131.58 196.80 131.14 199.68
  Q 130.42 204.46 125.87 203.29
  A 1.13 1.11 7.4 0 1 125.03 202.21
  L 125.02 185.74
  Q 125.02 184.91 124.19 184.99
  Q 122.72 185.15 121.36 186.09
  Q 120.87 186.43 121.18 186.93
  Q 121.37 187.24 121.74 187.26
  Q 122.70 187.31 122.70 188.27"
/>
<path stroke="#ae93c1" vector-effect="non-scaling-stroke" d="
  M 206.25 185.57
  L 204.33 185.56
  A 0.53 0.53 0.0 0 0 203.79 186.08
  L 203.79 186.20
  A 13.23 1.40 -89.7 0 0 205.12 199.44
  L 205.30 199.44
  A 13.23 1.40 -89.7 0 0 206.77 186.22
  L 206.77 186.10
  A 0.53 0.53 0.0 0 0 206.25 185.57"
/>
<path stroke="#ae93c1" vector-effect="non-scaling-stroke" d="
  M 217.31 185.52
  L 215.31 185.52
  A 0.52 0.52 0.0 0 0 214.79 186.04
  L 214.79 186.18
  A 13.30 1.45 90.0 0 0 216.24 199.48
  L 216.38 199.48
  A 13.30 1.45 -90.0 0 0 217.83 186.18
  L 217.83 186.04
  A 0.52 0.52 0.0 0 0 217.31 185.52"
/>
<path stroke="#ae93c1" vector-effect="non-scaling-stroke" d="
  M 228.33 185.55
  L 226.39 185.55
  A 0.53 0.53 0.0 0 0 225.86 186.07
  L 225.86 186.21
  A 13.41 1.45 -89.8 0 0 227.27 199.63
  L 227.37 199.63
  A 13.41 1.45 -89.8 0 0 228.86 186.23
  L 228.86 186.09
  A 0.53 0.53 0.0 0 0 228.33 185.55"
/>
<path stroke="#ae93c1" vector-effect="non-scaling-stroke" d="
  M 144.72 188.14
  A 1.49 1.49 0.0 0 0 143.23 186.65
  A 1.49 1.49 0.0 0 0 141.74 188.14
  A 1.49 1.49 0.0 0 0 143.23 189.63
  A 1.49 1.49 0.0 0 0 144.72 188.14"
/>
<path stroke="#ae93c1" vector-effect="non-scaling-stroke" d="
  M 10.37 187.85
  Q 10.72 187.77 10.91 187.50
  Q 11.44 186.75 10.53 186.75
  L 5.74 186.73
  A 0.30 0.30 0.0 0 0 5.50 187.21
  Q 7.89 190.57 10.56 195.16
  C 12.23 198.01 12.02 201.25 10.36 203.93
  A 0.53 0.53 0.0 0 0 10.81 204.74
  L 15.21 204.79
  Q 15.53 204.79 15.79 204.59
  Q 16.09 204.35 15.96 204.07
  Q 15.80 203.72 15.44 203.56
  Q 14.97 203.36 14.59 203.04
  Q 14.29 202.79 14.20 202.35
  Q 13.39 198.42 14.76 195.67
  Q 15.12 194.94 14.32 194.77
  L 13.43 194.57
  Q 12.71 194.41 12.35 193.76
  L 9.82 189.09
  A 0.85 0.85 0.0 0 1 10.37 187.85"
/>
<path stroke="#ae93c1" vector-effect="non-scaling-stroke" d="
  M 16.13 189.45
  Q 15.73 190.51 15.24 191.58
  A 0.48 0.48 0.0 0 0 15.53 192.24
  L 15.78 192.32
  A 0.99 0.98 24.6 0 0 16.90 191.91
  L 19.75 187.45
  A 0.43 0.43 0.0 0 0 19.41 186.78
  Q 17.73 186.68 16.07 186.73
  Q 14.08 186.78 15.68 187.96
  C 16.15 188.30 16.34 188.91 16.13 189.45"
/>
<path stroke="#ae93c1" vector-effect="non-scaling-stroke" d="
  M 42.60 202.26
  L 42.53 194.38
  A 0.59 0.59 0.0 0 1 43.12 193.78
  L 44.72 193.79
  Q 45.47 193.80 45.70 193.09
  L 45.82 192.73
  Q 46.00 192.20 45.43 192.17
  L 43.33 192.09
  Q 42.58 192.06 42.59 191.32
  L 42.61 189.22
  Q 42.62 188.52 41.97 188.80
  L 41.62 188.96
  A 0.96 0.94 83.7 0 0 41.06 189.67
  Q 40.71 191.81 38.59 192.55
  Q 38.26 192.67 38.14 193.00
  Q 38.08 193.16 38.09 193.33
  Q 38.15 193.92 38.74 193.83
  Q 39.23 193.77 39.66 193.91
  A 0.85 0.85 0.0 0 1 40.25 194.76
  Q 40.08 198.59 40.18 202.61
  C 40.27 206.00 43.82 205.30 45.38 203.45
  Q 45.94 202.78 45.07 202.80
  Q 44.45 202.82 43.87 203.08
  A 0.91 0.90 -12.0 0 1 42.60 202.26"
/>
<path stroke="#ae93c1" vector-effect="non-scaling-stroke" d="
  M 63.8965 197.3173
  A 5.61 5.61 0.0 0 0 58.1035 191.8963
  L 57.0641 191.9308
  A 5.61 5.61 0.0 0 0 51.6432 197.7237
  L 51.7035 199.5427
  A 5.61 5.61 0.0 0 0 57.4965 204.9637
  L 58.5359 204.9292
  A 5.61 5.61 0.0 0 0 63.9568 199.1363
  L 63.8965 197.3173"
/>
<path stroke="#ae93c1" vector-effect="non-scaling-stroke" d="
  M 102.0551 197.4980
  A 5.56 5.56 0.0 0 0 96.4661 191.9672
  L 95.3661 191.9730
  A 5.56 5.56 0.0 0 0 89.8353 197.5620
  L 89.8449 199.4020
  A 5.56 5.56 0.0 0 0 95.4339 204.9328
  L 96.5339 204.9270
  A 5.56 5.56 0.0 0 0 102.0647 199.3380
  L 102.0551 197.4980"
/>
<path stroke="#ae93c1" vector-effect="non-scaling-stroke" d="
  M 144.29 202.26
  L 144.25 192.53
  Q 144.25 191.93 143.65 191.95
  Q 141.92 192.01 140.40 193.11
  A 0.35 0.35 0.0 0 0 140.52 193.74
  L 141.44 193.97
  Q 142.00 194.11 142.00 194.69
  L 141.99 203.17
  A 1.85 1.85 0.0 0 0 143.86 205.02
  Q 145.55 204.99 146.58 203.63
  Q 147.11 202.93 146.23 203.02
  L 145.26 203.13
  Q 144.29 203.24 144.29 202.26"
/>
<path stroke="#ae93c1" vector-effect="non-scaling-stroke" d="
  M 162.18 202.20
  C 155.42 206.16 153.62 198.45 156.29 194.27
  C 157.74 192.00 161.78 193.52 160.74 196.35
  C 159.96 198.49 158.34 198.30 156.50 198.04
  Q 155.94 197.95 155.90 198.52
  Q 155.88 198.74 155.98 198.93
  Q 156.09 199.16 156.31 199.27
  C 159.52 200.89 163.49 198.90 163.33 195.08
  C 163.26 193.43 161.68 192.23 160.16 192.02
  Q 155.72 191.40 153.56 194.68
  C 152.17 196.80 152.08 200.14 153.43 202.27
  Q 156.02 206.37 161.44 204.33
  Q 162.58 203.90 163.00 202.94
  Q 163.73 201.29 162.18 202.20"
/>
<path stroke="#ae93c1" vector-effect="non-scaling-stroke" d="
  M 174.06 194.44
  L 173.97 192.62
  A 0.65 0.65 0.0 0 0 173.08 192.04
  L 170.56 193.01
  Q 169.54 193.41 170.40 194.09
  Q 170.66 194.29 170.98 194.27
  Q 171.76 194.21 171.76 194.99
  L 171.77 202.34
  A 1.27 1.24 73.2 0 1 171.23 203.38
  Q 171.00 203.54 170.80 203.73
  Q 169.73 204.77 171.23 204.77
  L 174.55 204.77
  A 0.40 0.39 78.5 0 0 174.91 204.22
  Q 173.15 199.96 175.12 195.68
  Q 175.86 194.08 177.51 193.81
  A 2.13 2.13 0.0 0 1 179.98 195.90
  L 180.01 203.54
  A 1.31 1.30 12.5 0 0 180.77 204.72
  Q 182.53 205.52 184.33 203.79
  Q 185.20 202.96 184.00 202.93
  Q 183.73 202.93 183.50 203.08
  A 0.82 0.81 -16.4 0 1 182.23 202.39
  C 182.29 200.15 183.13 192.38 179.68 191.99
  C 178.11 191.81 175.53 192.46 175.00 194.15
  Q 174.92 194.42 174.75 194.65
  Q 174.12 195.51 174.06 194.44"
/>
<path stroke="#ae93c1" vector-effect="non-scaling-stroke" d="
  M 206.80 203.36
  A 1.54 1.54 0.0 0 0 205.26 201.82
  A 1.54 1.54 0.0 0 0 203.72 203.36
  A 1.54 1.54 0.0 0 0 205.26 204.90
  A 1.54 1.54 0.0 0 0 206.80 203.36"
/>
<path stroke="#ae93c1" vector-effect="non-scaling-stroke" d="
  M 217.82 203.37
  A 1.52 1.52 0.0 0 0 216.30 201.85
  A 1.52 1.52 0.0 0 0 214.78 203.37
  A 1.52 1.52 0.0 0 0 216.30 204.89
  A 1.52 1.52 0.0 0 0 217.82 203.37"
/>
<path stroke="#ae93c1" vector-effect="non-scaling-stroke" d="
  M 228.89 203.32
  A 1.51 1.51 0.0 0 0 227.38 201.81
  A 1.51 1.51 0.0 0 0 225.87 203.32
  A 1.51 1.51 0.0 0 0 227.38 204.83
  A 1.51 1.51 0.0 0 0 228.89 203.32"
/>
<path stroke="#ae93c1" vector-effect="non-scaling-stroke" d="
  M 159.30 51.04
  A 42.29 42.29 0.0 0 0 117.01 8.75
  A 42.29 42.29 0.0 0 0 74.72 51.04
  A 42.29 42.29 0.0 0 0 117.01 93.33
  A 42.29 42.29 0.0 0 0 159.30 51.04"
/>
<path stroke="#ae93c1" vector-effect="non-scaling-stroke" d="
  M 157.71 51.04
  A 40.69 40.69 0.0 0 0 117.02 10.35
  A 40.69 40.69 0.0 0 0 76.33 51.04
  A 40.69 40.69 0.0 0 0 117.02 91.73
  A 40.69 40.69 0.0 0 0 157.71 51.04"
/>
<path stroke="#ae93c1" vector-effect="non-scaling-stroke" d="
  M 138.9652 50.0399
  A 21.97 21.45 -1.2 0 0 116.5508 29.0547
  A 21.97 21.45 -1.2 0 0 95.0348 50.9601
  A 21.97 21.45 -1.2 0 0 117.4492 71.9453
  A 21.97 21.45 -1.2 0 0 138.9652 50.0399"
/>
<path stroke="#ae93c1" vector-effect="non-scaling-stroke" d="
  M 130.28 50.06
  A 0.61 0.61 0.0 0 0 129.67 49.46
  L 118.63 49.50
  A 0.61 0.61 0.0 0 1 118.02 48.89
  L 118.04 38.29
  A 0.61 0.61 0.0 0 0 117.42 37.68
  L 115.73 37.72
  A 0.61 0.61 0.0 0 0 115.13 38.33
  L 115.13 51.73
  A 0.61 0.61 0.0 0 0 115.75 52.34
  L 129.70 52.23
  A 0.61 0.61 0.0 0 0 130.31 51.60
  L 130.28 50.06"
/>
<path stroke="#ae93c1" vector-effect="non-scaling-stroke" d="
  M 129.55 58.01
  A 0.57 0.57 0.0 0 0 128.98 57.46
  L 110.57 57.49
  A 0.57 0.57 0.0 0 1 110.00 56.92
  L 110.01 38.68
  A 0.57 0.57 0.0 0 0 109.41 38.11
  L 107.69 38.21
  A 0.57 0.57 0.0 0 0 107.15 38.78
  L 107.18 59.45
  A 0.57 0.57 0.0 0 0 107.75 60.02
  L 129.04 60.03
  A 0.57 0.57 0.0 0 0 129.61 59.44
  L 129.55 58.01"
/>
<path stroke="#ae93c1" vector-effect="non-scaling-stroke" d="
  M 52.19 132.86
  C 47.16 134.88 46.96 143.39 48.41 147.54
  C 50.41 153.25 55.81 152.41 59.35 148.94
  Q 59.73 148.56 59.73 148.02
  Q 59.66 143.35 59.78 137.93
  C 59.89 133.72 56.00 131.33 52.19 132.86"
/>
<path stroke="#ae93c1" vector-effect="non-scaling-stroke" d="
  M 80.93 132.37
  C 72.77 132.14 71.58 146.26 76.29 150.52
  C 79.03 152.99 82.94 151.24 85.29 149.08
  Q 85.75 148.66 85.74 148.03
  Q 85.71 143.73 85.79 138.05
  C 85.84 134.96 84.16 132.46 80.93 132.37"
/>
<path stroke="#ae93c1" vector-effect="non-scaling-stroke" d="
  M 158.5063 153.0286
  A 10.61 6.85 79.1 0 0 163.2264 141.3147
  A 10.61 6.85 79.1 0 0 154.4937 132.1914
  A 10.61 6.85 79.1 0 0 149.7736 143.9053
  A 10.61 6.85 79.1 0 0 158.5063 153.0286"
/>
<path stroke="#ae93c1" vector-effect="non-scaling-stroke" d="
  M 219.5152 153.0209
  A 10.60 6.87 78.6 0 0 224.1545 141.2721
  A 10.60 6.87 78.6 0 0 215.3248 132.2391
  A 10.60 6.87 78.6 0 0 210.6855 143.9879
  A 10.60 6.87 78.6 0 0 219.5152 153.0209"
/>
<path stroke="#ae93c1" vector-effect="non-scaling-stroke" d="
  M 25.83 137.53
  L 34.85 136.94
  A 0.10 0.10 0.0 0 0 34.94 136.83
  L 34.94 136.79
  A 4.56 4.44 -3.8 0 0 30.10 132.66
  L 29.98 132.67
  A 4.56 4.44 -3.8 0 0 25.72 137.40
  L 25.73 137.44
  A 0.10 0.10 0.0 0 0 25.83 137.53"
/>
<path stroke="#ae93c1" vector-effect="non-scaling-stroke" d="
  M 75.92 202.98
  C 78.15 203.05 79.59 200.95 79.49 198.79
  Q 79.40 196.76 79.49 194.85
  A 1.13 1.12 13.9 0 0 78.83 193.77
  C 73.48 191.35 72.52 197.96 73.55 201.20
  A 2.58 2.58 0.0 0 0 75.92 202.98"
/>
<path stroke="#ae93c1" vector-effect="non-scaling-stroke" d="
  M 57.7066 203.6396
  A 5.19 3.41 90.7 0 0 61.1797 198.4917
  A 5.19 3.41 90.7 0 0 57.8334 193.2604
  A 5.19 3.41 90.7 0 0 54.3603 198.4083
  A 5.19 3.41 90.7 0 0 57.7066 203.6396"
/>
<path stroke="#ae93c1" vector-effect="non-scaling-stroke" d="
  M 95.8984 203.6692
  A 5.25 3.50 91.0 0 0 99.4895 198.4811
  A 5.25 3.50 91.0 0 0 96.0816 193.1708
  A 5.25 3.50 91.0 0 0 92.4905 198.3589
  A 5.25 3.50 91.0 0 0 95.8984 203.6692"
/>
</g>
<path fill="#ffffff" d="
  M 0.00 0.00
  L 233.00 0.00
  L 233.00 216.00
  L 0.00 216.00
  L 0.00 0.00
  Z
  M 161.87 50.99
  A 44.88 44.88 0.0 0 0 116.99 6.11
  A 44.88 44.88 0.0 0 0 72.11 50.99
  A 44.88 44.88 0.0 0 0 116.99 95.87
  A 44.88 44.88 0.0 0 0 161.87 50.99
  Z
  M 8.14 152.24
  Q 7.44 152.48 6.77 152.78
  Q 5.80 153.21 6.86 153.22
  Q 11.97 153.26 16.61 153.26
  Q 16.64 153.26 16.64 153.23
  L 16.64 152.93
  Q 16.64 152.75 16.46 152.75
  C 13.20 152.58 13.54 150.51 13.55 147.76
  Q 13.57 129.90 13.49 113.64
  A 0.65 0.65 0.0 0 0 12.57 113.05
  L 5.40 116.41
  Q 5.21 116.49 5.28 116.69
  L 5.36 116.94
  Q 5.47 117.28 5.79 117.13
  C 8.19 116.04 9.52 116.84 9.51 119.26
  Q 9.48 136.18 9.41 150.48
  Q 9.41 151.81 8.14 152.24
  Z
  M 99.77 117.42
  Q 100.31 120.00 100.24 122.61
  Q 99.91 135.19 99.97 150.16
  C 99.97 151.34 99.30 152.10 98.19 152.46
  Q 95.84 153.21 98.31 153.26
  Q 102.14 153.34 106.64 153.22
  Q 107.56 153.19 106.73 152.79
  Q 106.24 152.56 105.71 152.42
  Q 105.16 152.29 104.85 151.82
  Q 104.05 150.63 104.05 149.17
  Q 103.99 132.63 104.00 113.50
  A 0.49 0.49 0.0 0 0 103.30 113.05
  L 95.83 116.52
  Q 95.78 116.55 95.78 116.57
  L 95.87 116.82
  Q 95.97 117.10 96.27 117.05
  L 98.57 116.62
  A 1.03 1.03 0.0 0 1 99.77 117.42
  Z
  M 119.47 122.52
  A 2.72 2.72 0.0 0 0 116.75 119.80
  A 2.72 2.72 0.0 0 0 114.03 122.52
  A 2.72 2.72 0.0 0 0 116.75 125.24
  A 2.72 2.72 0.0 0 0 119.47 122.52
  Z
  M 133.58 133.83
  L 139.94 134.50
  Q 140.97 134.60 141.01 133.56
  L 141.04 132.69
  A 0.78 0.78 0.0 0 0 140.19 131.89
  L 133.74 132.47
  A 0.61 0.61 0.0 0 1 133.07 131.87
  L 133.02 128.41
  Q 133.01 128.17 132.80 128.07
  Q 132.68 128.01 132.53 128.03
  Q 132.12 128.08 131.99 128.47
  Q 130.68 132.30 126.80 132.30
  Q 126.28 132.30 126.27 132.82
  L 126.27 133.20
  Q 126.27 133.54 126.60 133.53
  Q 129.01 133.44 129.06 135.72
  Q 129.22 143.32 129.23 150.56
  A 1.61 1.57 -62.7 0 0 129.50 151.45
  C 132.21 155.51 138.44 154.23 141.33 151.23
  Q 142.95 149.56 140.93 150.71
  C 137.82 152.49 133.06 152.24 133.05 147.62
  Q 133.03 140.60 133.04 134.31
  A 0.49 0.48 2.7 0 1 133.58 133.83
  Z
  M 59.76 151.05
  Q 59.77 155.40 59.69 160.37
  C 59.62 164.59 57.64 168.88 52.58 167.55
  C 49.35 166.70 49.11 161.89 45.54 162.84
  A 1.36 1.36 0.0 0 0 44.60 163.73
  Q 43.80 166.06 45.89 167.40
  C 49.78 169.89 56.46 169.60 60.01 166.24
  Q 63.47 162.96 63.49 157.71
  Q 63.56 145.17 63.53 131.89
  Q 63.53 130.97 62.83 131.57
  L 62.06 132.24
  Q 61.47 132.76 60.78 132.40
  C 54.89 129.31 47.47 132.24 44.57 138.19
  C 42.53 142.36 42.35 148.84 46.28 152.14
  C 50.26 155.47 55.23 153.92 58.71 150.61
  Q 59.75 149.62 59.76 151.05
  Z
  M 85.95 150.72
  Q 85.99 152.31 86.80 153.59
  Q 87.17 154.18 87.79 153.87
  L 94.00 150.78
  Q 95.07 150.25 93.88 150.19
  Q 93.02 150.14 92.21 150.56
  A 1.61 1.61 0.0 0 1 89.91 149.45
  Q 89.45 147.26 89.47 144.86
  Q 89.53 138.17 89.52 131.88
  Q 89.52 130.93 88.83 131.58
  L 88.02 132.35
  A 0.92 0.91 37.3 0 1 86.95 132.49
  Q 82.66 130.15 77.94 131.86
  C 71.02 134.36 67.68 141.40 69.84 148.34
  Q 70.86 151.60 73.83 153.07
  C 77.94 155.09 81.92 153.34 85.10 150.36
  Q 85.92 149.59 85.95 150.72
  Z
  M 165.5051 135.1207
  A 11.66 11.51 -39.9 0 0 149.1769 133.7699
  A 11.66 11.51 -39.9 0 0 147.6149 150.0793
  A 11.66 11.51 -39.9 0 0 163.9431 151.4301
  A 11.66 11.51 -39.9 0 0 165.5051 135.1207
  Z
  M 229.04 142.59
  A 11.59 11.59 0.0 0 0 217.45 131.00
  A 11.59 11.59 0.0 0 0 205.86 142.59
  A 11.59 11.59 0.0 0 0 217.45 154.18
  A 11.59 11.59 0.0 0 0 229.04 142.59
  Z
  M 111.23 135.52
  Q 112.96 134.71 114.16 135.25
  A 1.74 1.73 12.1 0 1 115.17 136.81
  L 115.22 150.51
  A 1.70 1.69 77.9 0 1 114.21 152.08
  L 112.50 152.84
  Q 111.81 153.15 112.56 153.18
  Q 116.96 153.36 121.62 153.18
  Q 122.99 153.13 121.70 152.67
  Q 121.23 152.50 120.74 152.39
  A 2.25 2.24 6.8 0 1 119.00 150.19
  L 119.12 131.91
  A 0.54 0.53 -12.0 0 0 118.36 131.42
  L 110.96 134.79
  Q 110.76 134.88 110.83 135.08
  L 110.95 135.40
  Q 111.02 135.62 111.23 135.52
  Z
  M 189.17 135.00
  C 190.32 133.13 194.70 131.39 196.45 133.82
  Q 197.18 134.82 197.71 135.93
  A 2.17 2.16 75.8 0 0 199.73 137.14
  Q 202.27 137.04 202.28 134.67
  A 1.93 1.93 0.0 0 0 201.40 133.05
  C 195.78 129.46 188.32 131.87 184.60 137.24
  Q 182.45 140.33 183.21 144.77
  C 184.80 153.96 195.22 157.10 201.94 151.06
  Q 203.07 150.04 201.64 150.55
  Q 190.06 154.67 187.84 144.25
  Q 186.73 139.00 189.17 135.00
  Z
  M 25.96 138.22
  L 37.19 138.24
  Q 40.34 138.25 39.23 135.30
  L 38.95 134.56
  A 4.58 4.56 83.3 0 0 35.26 131.63
  Q 26.78 130.52 22.70 136.51
  C 14.97 147.87 29.07 160.25 39.36 150.81
  Q 40.30 149.95 39.07 150.31
  C 37.83 150.67 36.77 151.41 35.48 151.60
  C 27.37 152.74 23.94 145.83 25.19 138.87
  Q 25.30 138.22 25.96 138.22
  Z
  M 178.39 151.27
  A 2.79 2.79 0.0 0 0 175.60 148.48
  A 2.79 2.79 0.0 0 0 172.81 151.27
  A 2.79 2.79 0.0 0 0 175.60 154.06
  A 2.79 2.79 0.0 0 0 178.39 151.27
  Z
  M 79.48 203.55
  L 79.99 204.46
  A 1.08 1.07 -13.8 0 0 80.92 205.02
  Q 82.66 205.05 83.67 203.87
  Q 84.66 202.71 83.17 203.02
  Q 81.78 203.31 81.78 201.92
  Q 81.81 194.41 81.89 186.12
  A 1.16 1.15 87.8 0 0 80.63 184.95
  Q 79.15 185.09 77.84 186.11
  Q 77.39 186.46 77.86 186.78
  Q 79.80 188.14 79.12 191.45
  Q 79.01 192.01 78.44 191.95
  C 65.25 190.66 70.22 210.82 78.61 203.40
  Q 79.14 202.93 79.48 203.55
  Z
  M 122.70 188.27
  L 122.70 202.59
  A 1.72 1.71 -77.0 0 0 123.66 204.13
  Q 126.50 205.55 129.47 204.68
  C 136.21 202.67 135.71 190.14 126.61 192.17
  Q 126.15 192.27 126.17 192.74
  L 126.18 193.17
  A 0.34 0.34 0.0 0 0 126.61 193.48
  C 130.61 192.30 131.58 196.80 131.14 199.68
  Q 130.42 204.46 125.87 203.29
  A 1.13 1.11 7.4 0 1 125.03 202.21
  L 125.02 185.74
  Q 125.02 184.91 124.19 184.99
  Q 122.72 185.15 121.36 186.09
  Q 120.87 186.43 121.18 186.93
  Q 121.37 187.24 121.74 187.26
  Q 122.70 187.31 122.70 188.27
  Z
  M 206.25 185.57
  L 204.33 185.56
  A 0.53 0.53 0.0 0 0 203.79 186.08
  L 203.79 186.20
  A 13.23 1.40 -89.7 0 0 205.12 199.44
  L 205.30 199.44
  A 13.23 1.40 -89.7 0 0 206.77 186.22
  L 206.77 186.10
  A 0.53 0.53 0.0 0 0 206.25 185.57
  Z
  M 217.31 185.52
  L 215.31 185.52
  A 0.52 0.52 0.0 0 0 214.79 186.04
  L 214.79 186.18
  A 13.30 1.45 90.0 0 0 216.24 199.48
  L 216.38 199.48
  A 13.30 1.45 -90.0 0 0 217.83 186.18
  L 217.83 186.04
  A 0.52 0.52 0.0 0 0 217.31 185.52
  Z
  M 228.33 185.55
  L 226.39 185.55
  A 0.53 0.53 0.0 0 0 225.86 186.07
  L 225.86 186.21
  A 13.41 1.45 -89.8 0 0 227.27 199.63
  L 227.37 199.63
  A 13.41 1.45 -89.8 0 0 228.86 186.23
  L 228.86 186.09
  A 0.53 0.53 0.0 0 0 228.33 185.55
  Z
  M 144.72 188.14
  A 1.49 1.49 0.0 0 0 143.23 186.65
  A 1.49 1.49 0.0 0 0 141.74 188.14
  A 1.49 1.49 0.0 0 0 143.23 189.63
  A 1.49 1.49 0.0 0 0 144.72 188.14
  Z
  M 10.37 187.85
  Q 10.72 187.77 10.91 187.50
  Q 11.44 186.75 10.53 186.75
  L 5.74 186.73
  A 0.30 0.30 0.0 0 0 5.50 187.21
  Q 7.89 190.57 10.56 195.16
  C 12.23 198.01 12.02 201.25 10.36 203.93
  A 0.53 0.53 0.0 0 0 10.81 204.74
  L 15.21 204.79
  Q 15.53 204.79 15.79 204.59
  Q 16.09 204.35 15.96 204.07
  Q 15.80 203.72 15.44 203.56
  Q 14.97 203.36 14.59 203.04
  Q 14.29 202.79 14.20 202.35
  Q 13.39 198.42 14.76 195.67
  Q 15.12 194.94 14.32 194.77
  L 13.43 194.57
  Q 12.71 194.41 12.35 193.76
  L 9.82 189.09
  A 0.85 0.85 0.0 0 1 10.37 187.85
  Z
  M 16.13 189.45
  Q 15.73 190.51 15.24 191.58
  A 0.48 0.48 0.0 0 0 15.53 192.24
  L 15.78 192.32
  A 0.99 0.98 24.6 0 0 16.90 191.91
  L 19.75 187.45
  A 0.43 0.43 0.0 0 0 19.41 186.78
  Q 17.73 186.68 16.07 186.73
  Q 14.08 186.78 15.68 187.96
  C 16.15 188.30 16.34 188.91 16.13 189.45
  Z
  M 42.60 202.26
  L 42.53 194.38
  A 0.59 0.59 0.0 0 1 43.12 193.78
  L 44.72 193.79
  Q 45.47 193.80 45.70 193.09
  L 45.82 192.73
  Q 46.00 192.20 45.43 192.17
  L 43.33 192.09
  Q 42.58 192.06 42.59 191.32
  L 42.61 189.22
  Q 42.62 188.52 41.97 188.80
  L 41.62 188.96
  A 0.96 0.94 83.7 0 0 41.06 189.67
  Q 40.71 191.81 38.59 192.55
  Q 38.26 192.67 38.14 193.00
  Q 38.08 193.16 38.09 193.33
  Q 38.15 193.92 38.74 193.83
  Q 39.23 193.77 39.66 193.91
  A 0.85 0.85 0.0 0 1 40.25 194.76
  Q 40.08 198.59 40.18 202.61
  C 40.27 206.00 43.82 205.30 45.38 203.45
  Q 45.94 202.78 45.07 202.80
  Q 44.45 202.82 43.87 203.08
  A 0.91 0.90 -12.0 0 1 42.60 202.26
  Z
  M 63.8965 197.3173
  A 5.61 5.61 0.0 0 0 58.1035 191.8963
  L 57.0641 191.9308
  A 5.61 5.61 0.0 0 0 51.6432 197.7237
  L 51.7035 199.5427
  A 5.61 5.61 0.0 0 0 57.4965 204.9637
  L 58.5359 204.9292
  A 5.61 5.61 0.0 0 0 63.9568 199.1363
  L 63.8965 197.3173
  Z
  M 102.0551 197.4980
  A 5.56 5.56 0.0 0 0 96.4661 191.9672
  L 95.3661 191.9730
  A 5.56 5.56 0.0 0 0 89.8353 197.5620
  L 89.8449 199.4020
  A 5.56 5.56 0.0 0 0 95.4339 204.9328
  L 96.5339 204.9270
  A 5.56 5.56 0.0 0 0 102.0647 199.3380
  L 102.0551 197.4980
  Z
  M 144.29 202.26
  L 144.25 192.53
  Q 144.25 191.93 143.65 191.95
  Q 141.92 192.01 140.40 193.11
  A 0.35 0.35 0.0 0 0 140.52 193.74
  L 141.44 193.97
  Q 142.00 194.11 142.00 194.69
  L 141.99 203.17
  A 1.85 1.85 0.0 0 0 143.86 205.02
  Q 145.55 204.99 146.58 203.63
  Q 147.11 202.93 146.23 203.02
  L 145.26 203.13
  Q 144.29 203.24 144.29 202.26
  Z
  M 162.18 202.20
  C 155.42 206.16 153.62 198.45 156.29 194.27
  C 157.74 192.00 161.78 193.52 160.74 196.35
  C 159.96 198.49 158.34 198.30 156.50 198.04
  Q 155.94 197.95 155.90 198.52
  Q 155.88 198.74 155.98 198.93
  Q 156.09 199.16 156.31 199.27
  C 159.52 200.89 163.49 198.90 163.33 195.08
  C 163.26 193.43 161.68 192.23 160.16 192.02
  Q 155.72 191.40 153.56 194.68
  C 152.17 196.80 152.08 200.14 153.43 202.27
  Q 156.02 206.37 161.44 204.33
  Q 162.58 203.90 163.00 202.94
  Q 163.73 201.29 162.18 202.20
  Z
  M 174.06 194.44
  L 173.97 192.62
  A 0.65 0.65 0.0 0 0 173.08 192.04
  L 170.56 193.01
  Q 169.54 193.41 170.40 194.09
  Q 170.66 194.29 170.98 194.27
  Q 171.76 194.21 171.76 194.99
  L 171.77 202.34
  A 1.27 1.24 73.2 0 1 171.23 203.38
  Q 171.00 203.54 170.80 203.73
  Q 169.73 204.77 171.23 204.77
  L 174.55 204.77
  A 0.40 0.39 78.5 0 0 174.91 204.22
  Q 173.15 199.96 175.12 195.68
  Q 175.86 194.08 177.51 193.81
  A 2.13 2.13 0.0 0 1 179.98 195.90
  L 180.01 203.54
  A 1.31 1.30 12.5 0 0 180.77 204.72
  Q 182.53 205.52 184.33 203.79
  Q 185.20 202.96 184.00 202.93
  Q 183.73 202.93 183.50 203.08
  A 0.82 0.81 -16.4 0 1 182.23 202.39
  C 182.29 200.15 183.13 192.38 179.68 191.99
  C 178.11 191.81 175.53 192.46 175.00 194.15
  Q 174.92 194.42 174.75 194.65
  Q 174.12 195.51 174.06 194.44
  Z
  M 206.80 203.36
  A 1.54 1.54 0.0 0 0 205.26 201.82
  A 1.54 1.54 0.0 0 0 203.72 203.36
  A 1.54 1.54 0.0 0 0 205.26 204.90
  A 1.54 1.54 0.0 0 0 206.80 203.36
  Z
  M 217.82 203.37
  A 1.52 1.52 0.0 0 0 216.30 201.85
  A 1.52 1.52 0.0 0 0 214.78 203.37
  A 1.52 1.52 0.0 0 0 216.30 204.89
  A 1.52 1.52 0.0 0 0 217.82 203.37
  Z
  M 228.89 203.32
  A 1.51 1.51 0.0 0 0 227.38 201.81
  A 1.51 1.51 0.0 0 0 225.87 203.32
  A 1.51 1.51 0.0 0 0 227.38 204.83
  A 1.51 1.51 0.0 0 0 228.89 203.32
  Z"
/>
<path fill="#5d2683" d="
  M 161.87 50.99
  A 44.88 44.88 0.0 0 1 116.99 95.87
  A 44.88 44.88 0.0 0 1 72.11 50.99
  A 44.88 44.88 0.0 0 1 116.99 6.11
  A 44.88 44.88 0.0 0 1 161.87 50.99
  Z
  M 159.30 51.04
  A 42.29 42.29 0.0 0 0 117.01 8.75
  A 42.29 42.29 0.0 0 0 74.72 51.04
  A 42.29 42.29 0.0 0 0 117.01 93.33
  A 42.29 42.29 0.0 0 0 159.30 51.04
  Z"
/>
<path fill="#ffffff" d="
  M 159.30 51.04
  A 42.29 42.29 0.0 0 1 117.01 93.33
  A 42.29 42.29 0.0 0 1 74.72 51.04
  A 42.29 42.29 0.0 0 1 117.01 8.75
  A 42.29 42.29 0.0 0 1 159.30 51.04
  Z
  M 157.71 51.04
  A 40.69 40.69 0.0 0 0 117.02 10.35
  A 40.69 40.69 0.0 0 0 76.33 51.04
  A 40.69 40.69 0.0 0 0 117.02 91.73
  A 40.69 40.69 0.0 0 0 157.71 51.04
  Z"
/>
<path fill="#5d2683" d="
  M 157.71 51.04
  A 40.69 40.69 0.0 0 1 117.02 91.73
  A 40.69 40.69 0.0 0 1 76.33 51.04
  A 40.69 40.69 0.0 0 1 117.02 10.35
  A 40.69 40.69 0.0 0 1 157.71 51.04
  Z
  M 138.9652 50.0399
  A 21.97 21.45 -1.2 0 0 116.5508 29.0547
  A 21.97 21.45 -1.2 0 0 95.0348 50.9601
  A 21.97 21.45 -1.2 0 0 117.4492 71.9453
  A 21.97 21.45 -1.2 0 0 138.9652 50.0399
  Z"
/>
<path fill="#ffffff" d="
  M 138.9652 50.0399
  A 21.97 21.45 -1.2 0 1 117.4492 71.9453
  A 21.97 21.45 -1.2 0 1 95.0348 50.9601
  A 21.97 21.45 -1.2 0 1 116.5508 29.0547
  A 21.97 21.45 -1.2 0 1 138.9652 50.0399
  Z
  M 130.28 50.06
  A 0.61 0.61 0.0 0 0 129.67 49.46
  L 118.63 49.50
  A 0.61 0.61 0.0 0 1 118.02 48.89
  L 118.04 38.29
  A 0.61 0.61 0.0 0 0 117.42 37.68
  L 115.73 37.72
  A 0.61 0.61 0.0 0 0 115.13 38.33
  L 115.13 51.73
  A 0.61 0.61 0.0 0 0 115.75 52.34
  L 129.70 52.23
  A 0.61 0.61 0.0 0 0 130.31 51.60
  L 130.28 50.06
  Z
  M 129.55 58.01
  A 0.57 0.57 0.0 0 0 128.98 57.46
  L 110.57 57.49
  A 0.57 0.57 0.0 0 1 110.00 56.92
  L 110.01 38.68
  A 0.57 0.57 0.0 0 0 109.41 38.11
  L 107.69 38.21
  A 0.57 0.57 0.0 0 0 107.15 38.78
  L 107.18 59.45
  A 0.57 0.57 0.0 0 0 107.75 60.02
  L 129.04 60.03
  A 0.57 0.57 0.0 0 0 129.61 59.44
  L 129.55 58.01
  Z"
/>
<path fill="#5d2683" d="
  M 130.28 50.06
  L 130.31 51.60
  A 0.61 0.61 0.0 0 1 129.70 52.23
  L 115.75 52.34
  A 0.61 0.61 0.0 0 1 115.13 51.73
  L 115.13 38.33
  A 0.61 0.61 0.0 0 1 115.73 37.72
  L 117.42 37.68
  A 0.61 0.61 0.0 0 1 118.04 38.29
  L 118.02 48.89
  A 0.61 0.61 0.0 0 0 118.63 49.50
  L 129.67 49.46
  A 0.61 0.61 0.0 0 1 130.28 50.06
  Z"
/>
<path fill="#5d2683" d="
  M 129.55 58.01
  L 129.61 59.44
  A 0.57 0.57 0.0 0 1 129.04 60.03
  L 107.75 60.02
  A 0.57 0.57 0.0 0 1 107.18 59.45
  L 107.15 38.78
  A 0.57 0.57 0.0 0 1 107.69 38.21
  L 109.41 38.11
  A 0.57 0.57 0.0 0 1 110.01 38.68
  L 110.00 56.92
  A 0.57 0.57 0.0 0 0 110.57 57.49
  L 128.98 57.46
  A 0.57 0.57 0.0 0 1 129.55 58.01
  Z"
/>
<path fill="#5d2683" d="
  M 8.14 152.24
  Q 9.41 151.81 9.41 150.48
  Q 9.48 136.18 9.51 119.26
  C 9.52 116.84 8.19 116.04 5.79 117.13
  Q 5.47 117.28 5.36 116.94
  L 5.28 116.69
  Q 5.21 116.49 5.40 116.41
  L 12.57 113.05
  A 0.65 0.65 0.0 0 1 13.49 113.64
  Q 13.57 129.90 13.55 147.76
  C 13.54 150.51 13.20 152.58 16.46 152.75
  Q 16.64 152.75 16.64 152.93
  L 16.64 153.23
  Q 16.64 153.26 16.61 153.26
  Q 11.97 153.26 6.86 153.22
  Q 5.80 153.21 6.77 152.78
  Q 7.44 152.48 8.14 152.24
  Z"
/>
<path fill="#5d2683" d="
  M 98.57 116.62
  L 96.27 117.05
  Q 95.97 117.10 95.87 116.82
  L 95.78 116.57
  Q 95.78 116.55 95.83 116.52
  L 103.30 113.05
  A 0.49 0.49 0.0 0 1 104.00 113.50
  Q 103.99 132.63 104.05 149.17
  Q 104.05 150.63 104.85 151.82
  Q 105.16 152.29 105.71 152.42
  Q 106.24 152.56 106.73 152.79
  Q 107.56 153.19 106.64 153.22
  Q 102.14 153.34 98.31 153.26
  Q 95.84 153.21 98.19 152.46
  C 99.30 152.10 99.97 151.34 99.97 150.16
  Q 99.91 135.19 100.24 122.61
  Q 100.31 120.00 99.77 117.42
  A 1.03 1.03 0.0 0 0 98.57 116.62
  Z"
/>
<circle fill="#5d2683" cx="116.75" cy="122.52" r="2.72"/>
<path fill="#5d2683" d="
  M 133.58 133.83
  A 0.49 0.48 2.7 0 0 133.04 134.31
  Q 133.03 140.60 133.05 147.62
  C 133.06 152.24 137.82 152.49 140.93 150.71
  Q 142.95 149.56 141.33 151.23
  C 138.44 154.23 132.21 155.51 129.50 151.45
  A 1.61 1.57 -62.7 0 1 129.23 150.56
  Q 129.22 143.32 129.06 135.72
  Q 129.01 133.44 126.60 133.53
  Q 126.27 133.54 126.27 133.20
  L 126.27 132.82
  Q 126.28 132.30 126.80 132.30
  Q 130.68 132.30 131.99 128.47
  Q 132.12 128.08 132.53 128.03
  Q 132.68 128.01 132.80 128.07
  Q 133.01 128.17 133.02 128.41
  L 133.07 131.87
  A 0.61 0.61 0.0 0 0 133.74 132.47
  L 140.19 131.89
  A 0.78 0.78 0.0 0 1 141.04 132.69
  L 141.01 133.56
  Q 140.97 134.60 139.94 134.50
  L 133.58 133.83
  Z"
/>
<path fill="#5d2683" d="
  M 59.76 151.05
  Q 59.75 149.62 58.71 150.61
  C 55.23 153.92 50.26 155.47 46.28 152.14
  C 42.35 148.84 42.53 142.36 44.57 138.19
  C 47.47 132.24 54.89 129.31 60.78 132.40
  Q 61.47 132.76 62.06 132.24
  L 62.83 131.57
  Q 63.53 130.97 63.53 131.89
  Q 63.56 145.17 63.49 157.71
  Q 63.47 162.96 60.01 166.24
  C 56.46 169.60 49.78 169.89 45.89 167.40
  Q 43.80 166.06 44.60 163.73
  A 1.36 1.36 0.0 0 1 45.54 162.84
  C 49.11 161.89 49.35 166.70 52.58 167.55
  C 57.64 168.88 59.62 164.59 59.69 160.37
  Q 59.77 155.40 59.76 151.05
  Z
  M 52.19 132.86
  C 47.16 134.88 46.96 143.39 48.41 147.54
  C 50.41 153.25 55.81 152.41 59.35 148.94
  Q 59.73 148.56 59.73 148.02
  Q 59.66 143.35 59.78 137.93
  C 59.89 133.72 56.00 131.33 52.19 132.86
  Z"
/>
<path fill="#5d2683" d="
  M 85.10 150.36
  C 81.92 153.34 77.94 155.09 73.83 153.07
  Q 70.86 151.60 69.84 148.34
  C 67.68 141.40 71.02 134.36 77.94 131.86
  Q 82.66 130.15 86.95 132.49
  A 0.92 0.91 37.3 0 0 88.02 132.35
  L 88.83 131.58
  Q 89.52 130.93 89.52 131.88
  Q 89.53 138.17 89.47 144.86
  Q 89.45 147.26 89.91 149.45
  A 1.61 1.61 0.0 0 0 92.21 150.56
  Q 93.02 150.14 93.88 150.19
  Q 95.07 150.25 94.00 150.78
  L 87.79 153.87
  Q 87.17 154.18 86.80 153.59
  Q 85.99 152.31 85.95 150.72
  Q 85.92 149.59 85.10 150.36
  Z
  M 80.93 132.37
  C 72.77 132.14 71.58 146.26 76.29 150.52
  C 79.03 152.99 82.94 151.24 85.29 149.08
  Q 85.75 148.66 85.74 148.03
  Q 85.71 143.73 85.79 138.05
  C 85.84 134.96 84.16 132.46 80.93 132.37
  Z"
/>
<path fill="#5d2683" d="
  M 165.5051 135.1207
  A 11.66 11.51 -39.9 0 1 163.9431 151.4301
  A 11.66 11.51 -39.9 0 1 147.6149 150.0793
  A 11.66 11.51 -39.9 0 1 149.1769 133.7699
  A 11.66 11.51 -39.9 0 1 165.5051 135.1207
  Z
  M 158.5063 153.0286
  A 10.61 6.85 79.1 0 0 163.2264 141.3147
  A 10.61 6.85 79.1 0 0 154.4937 132.1914
  A 10.61 6.85 79.1 0 0 149.7736 143.9053
  A 10.61 6.85 79.1 0 0 158.5063 153.0286
  Z"
/>
<path fill="#5d2683" d="
  M 229.04 142.59
  A 11.59 11.59 0.0 0 1 217.45 154.18
  A 11.59 11.59 0.0 0 1 205.86 142.59
  A 11.59 11.59 0.0 0 1 217.45 131.00
  A 11.59 11.59 0.0 0 1 229.04 142.59
  Z
  M 219.5152 153.0209
  A 10.60 6.87 78.6 0 0 224.1545 141.2721
  A 10.60 6.87 78.6 0 0 215.3248 132.2391
  A 10.60 6.87 78.6 0 0 210.6855 143.9879
  A 10.60 6.87 78.6 0 0 219.5152 153.0209
  Z"
/>
<path fill="#5d2683" d="
  M 111.23 135.52
  Q 111.02 135.62 110.95 135.40
  L 110.83 135.08
  Q 110.76 134.88 110.96 134.79
  L 118.36 131.42
  A 0.54 0.53 -12.0 0 1 119.12 131.91
  L 119.00 150.19
  A 2.25 2.24 6.8 0 0 120.74 152.39
  Q 121.23 152.50 121.70 152.67
  Q 122.99 153.13 121.62 153.18
  Q 116.96 153.36 112.56 153.18
  Q 111.81 153.15 112.50 152.84
  L 114.21 152.08
  A 1.70 1.69 77.9 0 0 115.22 150.51
  L 115.17 136.81
  A 1.74 1.73 12.1 0 0 114.16 135.25
  Q 112.96 134.71 111.23 135.52
  Z"
/>
<path fill="#5d2683" d="
  M 189.17 135.00
  Q 186.73 139.00 187.84 144.25
  Q 190.06 154.67 201.64 150.55
  Q 203.07 150.04 201.94 151.06
  C 195.22 157.10 184.80 153.96 183.21 144.77
  Q 182.45 140.33 184.60 137.24
  C 188.32 131.87 195.78 129.46 201.40 133.05
  A 1.93 1.93 0.0 0 1 202.28 134.67
  Q 202.27 137.04 199.73 137.14
  A 2.17 2.16 75.8 0 1 197.71 135.93
  Q 197.18 134.82 196.45 133.82
  C 194.70 131.39 190.32 133.13 189.17 135.00
  Z"
/>
<path fill="#5d2683" d="
  M 25.96 138.22
  Q 25.30 138.22 25.19 138.87
  C 23.94 145.83 27.37 152.74 35.48 151.60
  C 36.77 151.41 37.83 150.67 39.07 150.31
  Q 40.30 149.95 39.36 150.81
  C 29.07 160.25 14.97 147.87 22.70 136.51
  Q 26.78 130.52 35.26 131.63
  A 4.58 4.56 83.3 0 1 38.95 134.56
  L 39.23 135.30
  Q 40.34 138.25 37.19 138.24
  L 25.96 138.22
  Z
  M 25.83 137.53
  L 34.85 136.94
  A 0.10 0.10 0.0 0 0 34.94 136.83
  L 34.94 136.79
  A 4.56 4.44 -3.8 0 0 30.10 132.66
  L 29.98 132.67
  A 4.56 4.44 -3.8 0 0 25.72 137.40
  L 25.73 137.44
  A 0.10 0.10 0.0 0 0 25.83 137.53
  Z"
/>
<path fill="#ffffff" d="
  M 52.19 132.86
  C 56.00 131.33 59.89 133.72 59.78 137.93
  Q 59.66 143.35 59.73 148.02
  Q 59.73 148.56 59.35 148.94
  C 55.81 152.41 50.41 153.25 48.41 147.54
  C 46.96 143.39 47.16 134.88 52.19 132.86
  Z"
/>
<path fill="#ffffff" d="
  M 76.29 150.52
  C 71.58 146.26 72.77 132.14 80.93 132.37
  C 84.16 132.46 85.84 134.96 85.79 138.05
  Q 85.71 143.73 85.74 148.03
  Q 85.75 148.66 85.29 149.08
  C 82.94 151.24 79.03 152.99 76.29 150.52
  Z"
/>
<ellipse fill="#ffffff" cx="0.00" cy="0.00" transform="translate(156.50,142.61) rotate(79.1)" rx="10.61" ry="6.85"/>
<ellipse fill="#ffffff" cx="0.00" cy="0.00" transform="translate(217.42,142.63) rotate(78.6)" rx="10.60" ry="6.87"/>
<path fill="#ffffff" d="
  M 25.83 137.53
  A 0.10 0.10 0.0 0 1 25.73 137.44
  L 25.72 137.40
  A 4.56 4.44 -3.8 0 1 29.98 132.67
  L 30.10 132.66
  A 4.56 4.44 -3.8 0 1 34.94 136.79
  L 34.94 136.83
  A 0.10 0.10 0.0 0 1 34.85 136.94
  L 25.83 137.53
  Z"
/>
<circle fill="#5d2683" cx="175.60" cy="151.27" r="2.79"/>
<path fill="#5d2683" d="
  M 78.61 203.40
  C 70.22 210.82 65.25 190.66 78.44 191.95
  Q 79.01 192.01 79.12 191.45
  Q 79.80 188.14 77.86 186.78
  Q 77.39 186.46 77.84 186.11
  Q 79.15 185.09 80.63 184.95
  A 1.16 1.15 87.8 0 1 81.89 186.12
  Q 81.81 194.41 81.78 201.92
  Q 81.78 203.31 83.17 203.02
  Q 84.66 202.71 83.67 203.87
  Q 82.66 205.05 80.92 205.02
  A 1.08 1.07 -13.8 0 1 79.99 204.46
  L 79.48 203.55
  Q 79.14 202.93 78.61 203.40
  Z
  M 75.92 202.98
  C 78.15 203.05 79.59 200.95 79.49 198.79
  Q 79.40 196.76 79.49 194.85
  A 1.13 1.12 13.9 0 0 78.83 193.77
  C 73.48 191.35 72.52 197.96 73.55 201.20
  A 2.58 2.58 0.0 0 0 75.92 202.98
  Z"
/>
<path fill="#5d2683" d="
  M 121.74 187.26
  Q 121.37 187.24 121.18 186.93
  Q 120.87 186.43 121.36 186.09
  Q 122.72 185.15 124.19 184.99
  Q 125.02 184.91 125.02 185.74
  L 125.03 202.21
  A 1.13 1.11 7.4 0 0 125.87 203.29
  Q 130.42 204.46 131.14 199.68
  C 131.58 196.80 130.61 192.30 126.61 193.48
  A 0.34 0.34 0.0 0 1 126.18 193.17
  L 126.17 192.74
  Q 126.15 192.27 126.61 192.17
  C 135.71 190.14 136.21 202.67 129.47 204.68
  Q 126.50 205.55 123.66 204.13
  A 1.72 1.71 -77.0 0 1 122.70 202.59
  L 122.70 188.27
  Q 122.70 187.31 121.74 187.26
  Z"
/>
<path fill="#5d2683" d="
  M 206.25 185.57
  A 0.53 0.53 0.0 0 1 206.77 186.10
  L 206.77 186.22
  A 13.23 1.40 -89.7 0 1 205.30 199.44
  L 205.12 199.44
  A 13.23 1.40 -89.7 0 1 203.79 186.20
  L 203.79 186.08
  A 0.53 0.53 0.0 0 1 204.33 185.56
  L 206.25 185.57
  Z"
/>
<path fill="#5d2683" d="
  M 217.31 185.52
  A 0.52 0.52 0.0 0 1 217.83 186.04
  L 217.83 186.18
  A 13.30 1.45 -90.0 0 1 216.38 199.48
  L 216.24 199.48
  A 13.30 1.45 -90.0 0 1 214.79 186.18
  L 214.79 186.04
  A 0.52 0.52 0.0 0 1 215.31 185.52
  L 217.31 185.52
  Z"
/>
<path fill="#5d2683" d="
  M 228.33 185.55
  A 0.53 0.53 0.0 0 1 228.86 186.09
  L 228.86 186.23
  A 13.41 1.45 -89.8 0 1 227.37 199.63
  L 227.27 199.63
  A 13.41 1.45 -89.8 0 1 225.86 186.21
  L 225.86 186.07
  A 0.53 0.53 0.0 0 1 226.39 185.55
  L 228.33 185.55
  Z"
/>
<circle fill="#5d2683" cx="143.23" cy="188.14" r="1.49"/>
<path fill="#5d2683" d="
  M 9.82 189.09
  L 12.35 193.76
  Q 12.71 194.41 13.43 194.57
  L 14.32 194.77
  Q 15.12 194.94 14.76 195.67
  Q 13.39 198.42 14.20 202.35
  Q 14.29 202.79 14.59 203.04
  Q 14.97 203.36 15.44 203.56
  Q 15.80 203.72 15.96 204.07
  Q 16.09 204.35 15.79 204.59
  Q 15.53 204.79 15.21 204.79
  L 10.81 204.74
  A 0.53 0.53 0.0 0 1 10.36 203.93
  C 12.02 201.25 12.23 198.01 10.56 195.16
  Q 7.89 190.57 5.50 187.21
  A 0.30 0.30 0.0 0 1 5.74 186.73
  L 10.53 186.75
  Q 11.44 186.75 10.91 187.50
  Q 10.72 187.77 10.37 187.85
  A 0.85 0.85 0.0 0 0 9.82 189.09
  Z"
/>
<path fill="#5d2683" d="
  M 16.13 189.45
  C 16.34 188.91 16.15 188.30 15.68 187.96
  Q 14.08 186.78 16.07 186.73
  Q 17.73 186.68 19.41 186.78
  A 0.43 0.43 0.0 0 1 19.75 187.45
  L 16.90 191.91
  A 0.99 0.98 24.6 0 1 15.78 192.32
  L 15.53 192.24
  A 0.48 0.48 0.0 0 1 15.24 191.58
  Q 15.73 190.51 16.13 189.45
  Z"
/>
<path fill="#5d2683" d="
  M 43.87 203.08
  Q 44.45 202.82 45.07 202.80
  Q 45.94 202.78 45.38 203.45
  C 43.82 205.30 40.27 206.00 40.18 202.61
  Q 40.08 198.59 40.25 194.76
  A 0.85 0.85 0.0 0 0 39.66 193.91
  Q 39.23 193.77 38.74 193.83
  Q 38.15 193.92 38.09 193.33
  Q 38.08 193.16 38.14 193.00
  Q 38.26 192.67 38.59 192.55
  Q 40.71 191.81 41.06 189.67
  A 0.96 0.94 83.7 0 1 41.62 188.96
  L 41.97 188.80
  Q 42.62 188.52 42.61 189.22
  L 42.59 191.32
  Q 42.58 192.06 43.33 192.09
  L 45.43 192.17
  Q 46.00 192.20 45.82 192.73
  L 45.70 193.09
  Q 45.47 193.80 44.72 193.79
  L 43.12 193.78
  A 0.59 0.59 0.0 0 0 42.53 194.38
  L 42.60 202.26
  A 0.91 0.90 -12.0 0 0 43.87 203.08
  Z"
/>
<path fill="#5d2683" d="
  M 63.9568 199.1363
  A 5.61 5.61 0.0 0 1 58.5359 204.9292
  L 57.4965 204.9637
  A 5.61 5.61 0.0 0 1 51.7035 199.5427
  L 51.6432 197.7237
  A 5.61 5.61 0.0 0 1 57.0641 191.9308
  L 58.1035 191.8963
  A 5.61 5.61 0.0 0 1 63.8965 197.3173
  L 63.9568 199.1363
  Z
  M 57.7066 203.6396
  A 5.19 3.41 90.7 0 0 61.1797 198.4917
  A 5.19 3.41 90.7 0 0 57.8334 193.2604
  A 5.19 3.41 90.7 0 0 54.3603 198.4083
  A 5.19 3.41 90.7 0 0 57.7066 203.6396
  Z"
/>
<path fill="#5d2683" d="
  M 102.0647 199.3380
  A 5.56 5.56 0.0 0 1 96.5339 204.9270
  L 95.4339 204.9328
  A 5.56 5.56 0.0 0 1 89.8449 199.4020
  L 89.8353 197.5620
  A 5.56 5.56 0.0 0 1 95.3661 191.9730
  L 96.4661 191.9672
  A 5.56 5.56 0.0 0 1 102.0551 197.4980
  L 102.0647 199.3380
  Z
  M 95.8984 203.6692
  A 5.25 3.50 91.0 0 0 99.4895 198.4811
  A 5.25 3.50 91.0 0 0 96.0816 193.1708
  A 5.25 3.50 91.0 0 0 92.4905 198.3589
  A 5.25 3.50 91.0 0 0 95.8984 203.6692
  Z"
/>
<path fill="#5d2683" d="
  M 145.26 203.13
  L 146.23 203.02
  Q 147.11 202.93 146.58 203.63
  Q 145.55 204.99 143.86 205.02
  A 1.85 1.85 0.0 0 1 141.99 203.17
  L 142.00 194.69
  Q 142.00 194.11 141.44 193.97
  L 140.52 193.74
  A 0.35 0.35 0.0 0 1 140.40 193.11
  Q 141.92 192.01 143.65 191.95
  Q 144.25 191.93 144.25 192.53
  L 144.29 202.26
  Q 144.29 203.24 145.26 203.13
  Z"
/>
<path fill="#5d2683" d="
  M 156.29 194.27
  C 153.62 198.45 155.42 206.16 162.18 202.20
  Q 163.73 201.29 163.00 202.94
  Q 162.58 203.90 161.44 204.33
  Q 156.02 206.37 153.43 202.27
  C 152.08 200.14 152.17 196.80 153.56 194.68
  Q 155.72 191.40 160.16 192.02
  C 161.68 192.23 163.26 193.43 163.33 195.08
  C 163.49 198.90 159.52 200.89 156.31 199.27
  Q 156.09 199.16 155.98 198.93
  Q 155.88 198.74 155.90 198.52
  Q 155.94 197.95 156.50 198.04
  C 158.34 198.30 159.96 198.49 160.74 196.35
  C 161.78 193.52 157.74 192.00 156.29 194.27
  Z"
/>
<path fill="#5d2683" d="
  M 174.75 194.65
  Q 174.92 194.42 175.00 194.15
  C 175.53 192.46 178.11 191.81 179.68 191.99
  C 183.13 192.38 182.29 200.15 182.23 202.39
  A 0.82 0.81 -16.4 0 0 183.50 203.08
  Q 183.73 202.93 184.00 202.93
  Q 185.20 202.96 184.33 203.79
  Q 182.53 205.52 180.77 204.72
  A 1.31 1.30 12.5 0 1 180.01 203.54
  L 179.98 195.90
  A 2.13 2.13 0.0 0 0 177.51 193.81
  Q 175.86 194.08 175.12 195.68
  Q 173.15 199.96 174.91 204.22
  A 0.40 0.39 78.5 0 1 174.55 204.77
  L 171.23 204.77
  Q 169.73 204.77 170.80 203.73
  Q 171.00 203.54 171.23 203.38
  A 1.27 1.24 73.2 0 0 171.77 202.34
  L 171.76 194.99
  Q 171.76 194.21 170.98 194.27
  Q 170.66 194.29 170.40 194.09
  Q 169.54 193.41 170.56 193.01
  L 173.08 192.04
  A 0.65 0.65 0.0 0 1 173.97 192.62
  L 174.06 194.44
  Q 174.12 195.51 174.75 194.65
  Z"
/>
<ellipse fill="#ffffff" cx="0.00" cy="0.00" transform="translate(57.77,198.45) rotate(90.7)" rx="5.19" ry="3.41"/>
<ellipse fill="#ffffff" cx="0.00" cy="0.00" transform="translate(95.99,198.42) rotate(91.0)" rx="5.25" ry="3.50"/>
<path fill="#ffffff" d="
  M 75.92 202.98
  A 2.58 2.58 0.0 0 1 73.55 201.20
  C 72.52 197.96 73.48 191.35 78.83 193.77
  A 1.13 1.12 13.9 0 1 79.49 194.85
  Q 79.40 196.76 79.49 198.79
  C 79.59 200.95 78.15 203.05 75.92 202.98
  Z"
/>
<circle fill="#5d2683" cx="205.26" cy="203.36" r="1.54"/>
<circle fill="#5d2683" cx="216.30" cy="203.37" r="1.52"/>
<circle fill="#5d2683" cx="227.38" cy="203.32" r="1.51"/>
</svg>
